Coordinates
version=1
nRows=14
nColumns=40
inDegrees=yes

Units are S.I. units (second, meters, Newtons, ...)
Angles are in degrees.

endheader
time	pelvis_tilt	pelvis_list	pelvis_rotation	pelvis_tx	pelvis_ty	pelvis_tz	hip_flexion_r	hip_adduction_r	hip_rotation_r	knee_angle_r	knee_angle_r_beta	ankle_angle_r	subtalar_angle_r	mtp_angle_r	hip_flexion_l	hip_adduction_l	hip_rotation_l	knee_angle_l	knee_angle_l_beta	ankle_angle_l	subtalar_angle_l	mtp_angle_l	lumbar_extension	lumbar_bending	lumbar_rotation	arm_flex_r	arm_add_r	arm_rot_r	elbow_flex_r	pro_sup_r	wrist_flex_r	wrist_dev_r	arm_flex_l	arm_add_l	arm_rot_l	elbow_flex_l	pro_sup_l	wrist_flex_l	wrist_dev_l
      2.61000000	    -12.87354913	      1.20165193	      7.81848250	      0.98041373	      1.00736614	     -0.36503375	      4.19462505	     -0.00082521	     -2.63833416	     82.93190284	     82.93190284	    -17.05492626	      0.00000000	      0.00000000	     38.46234650	      9.54080783	     -0.82463919	     23.22119173	     23.22119173	     -8.35724980	      0.00000000	      0.00000000	      0.69197681	     -2.65926102	      2.78350018	    -23.47428278	    -21.76690873	     -0.86018973	    104.93859535	     61.92484582	      0.00000000	      0.00000000	    -43.42967781	    -19.01280337	     -9.54331942	    119.91766444	     57.89278471	      0.00000000	      0.00000000
      2.62000000	    -12.25047129	      1.60682497	      7.89608626	      0.97801744	      1.00079891	     -0.36485271	      6.38806677	     -1.18284072	     -2.90855222	     88.26026476	     88.26026476	    -15.99806329	      0.00000000	      0.00000000	     37.64874642	      9.92159892	     -0.75283703	     26.67273604	     26.67273604	     -7.64779993	      0.00000000	      0.00000000	     -0.54350869	     -3.11874205	      1.89060024	    -23.72635575	    -21.65439756	     -0.83218635	    101.41241457	     61.85794360	      0.00000000	      0.00000000	    -40.90150719	    -18.89733039	     -9.13329326	    118.44123602	     57.85540740	      0.00000000	      0.00000000
      2.63000000	    -12.46244869	      2.77534791	      8.19626680	      0.97633595	      0.99276226	     -0.36446665	      9.19907174	     -3.33534617	     -2.99643556	     93.34157871	     93.34157871	    -13.04724686	      0.00000000	      0.00000000	     38.71725305	     11.04519198	     -2.02084053	     33.21746736	     33.21746736	     -3.36056418	      0.00000000	      0.00000000	     -0.73447200	     -4.83386868	      0.68812011	    -24.05441418	    -20.97694026	     -0.67240686	     96.64416880	     61.91767764	      0.00000000	      0.00000000	    -38.94217818	    -19.32135164	     -8.36777113	    116.62672932	     57.79185487	      0.00000000	      0.00000000
      2.64000000	    -12.23573970	      3.53493565	      8.31394594	      0.97234839	      0.98667823	     -0.36451962	     12.28503649	     -5.06805919	     -2.77079909	     98.12734776	     98.12734776	    -11.80217188	      0.00000000	      0.00000000	     38.60985871	     11.98914985	     -1.65336175	     37.95691575	     37.95691575	      0.01129980	      0.00000000	      0.00000000	     -1.78913316	     -5.76334002	     -0.58017282	    -23.80616937	    -20.84381470	     -0.51474629	     93.18553818	     61.97846516	      0.00000000	      0.00000000	    -36.20531553	    -19.11521913	     -7.85417892	    114.78809510	     57.67851849	      0.00000000	      0.00000000
      2.65000000	    -12.50198986	      4.13547620	      8.44939422	      0.96938147	      0.98032150	     -0.36464089	     15.84361864	     -6.66484823	     -2.37472543	    102.09550992	    102.09550992	    -10.11912857	      0.00000000	      0.00000000	     38.61096636	     12.74962092	     -1.57852756	     42.44076889	     42.44076889	      4.32018422	      0.00000000	      0.00000000	     -2.15701955	     -6.52909598	     -2.05158803	    -23.91140820	    -20.63845452	     -0.23205417	     89.37838384	     62.15468692	      0.00000000	      0.00000000	    -33.88029482	    -19.12788115	     -7.18752155	    112.66808900	     57.52877950	      0.00000000	      0.00000000
      2.66000000	    -13.56608342	      3.99272789	      8.31670385	      0.96628536	      0.97432037	     -0.36408159	     20.70920180	     -7.28292125	     -1.66327803	    105.49645504	    105.49645504	     -8.17733856	      0.00000000	      0.00000000	     38.57853204	     12.67937345	     -1.18501997	     45.16687451	     45.16687451	      8.41008685	      0.00000000	      0.00000000	     -1.15927088	     -6.65791907	     -3.16194296	    -24.08949305	    -20.70652673	      0.17244080	     85.66503521	     62.76414842	      0.00000000	      0.00000000	    -31.59007050	    -19.06111672	     -6.27864527	    110.52402084	     57.31033455	      0.00000000	      0.00000000
      2.67000000	    -13.35155838	      4.06861839	      7.97859503	      0.96249058	      0.97196092	     -0.36387257	     24.47106277	     -7.86327678	     -0.77858665	    107.96388459	    107.96388459	     -7.61160767	      0.00000000	      0.00000000	     36.51361818	     12.75006761	     -0.24593023	     46.38914822	     46.38914822	      9.82864704	      0.00000000	      0.00000000	     -2.10131027	     -6.58344899	     -4.38331296	    -24.20966679	    -20.98897499	      0.28539424	     83.96615994	     62.92956439	      0.00000000	      0.00000000	    -29.06113333	    -18.67116561	     -6.08253047	    109.36741480	     57.21401813	      0.00000000	      0.00000000
      2.68000000	    -13.82031195	      4.33770629	      7.43462669	      0.96115493	      0.97067561	     -0.36361471	     28.64200371	     -7.96903480	      1.01790363	    109.38079628	    109.38079628	     -5.97630020	      0.00000000	      0.00000000	     34.48346975	     13.03452267	      0.57981601	     46.78399761	     46.78399761	     13.24962123	      0.00000000	      0.00000000	     -1.57628931	     -6.83357894	     -4.91611814	    -25.21745220	    -20.98666000	      0.62473998	     81.51649142	     63.41863760	      0.00000000	      0.00000000	    -27.18165829	    -18.41723376	     -5.80091232	    107.73849207	     57.10354328	      0.00000000	      0.00000000
      2.69000000	    -13.67939515	      4.12470111	      7.09455980	      0.95973000	      0.97164416	     -0.36336055	     32.26273017	     -8.20188838	      1.33124067	    110.07225308	    110.07225308	     -5.57108238	      0.00000000	      0.00000000	     31.82300475	     12.46001464	      0.48784116	     46.91154030	     46.91154030	     13.56895615	      0.00000000	      0.00000000	     -1.94493901	     -6.41976040	     -6.34688976	    -26.09913077	    -21.43636675	      0.48182607	     81.11452973	     63.44579598	      0.00000000	      0.00000000	    -25.92996892	    -18.23197764	     -5.78139198	    107.98582595	     57.08489330	      0.00000000	      0.00000000
      2.70000000	    -14.26062087	      4.20062416	      5.82178734	      0.95937749	      0.97322191	     -0.36298618	     36.61797515	     -7.86510831	      3.04945339	    110.05028823	    110.05028823	     -4.15151863	      0.00000000	      0.00000000	     28.97344651	     12.17310978	      0.68526458	     45.22523118	     45.22523118	     15.45767471	      0.00000000	      0.00000000	     -0.93695088	     -6.32542675	     -6.44226701	    -27.59190629	    -21.84493293	      0.05153296	     81.72446065	     63.75093059	      0.00000000	      0.00000000	    -25.28060168	    -17.44686011	     -6.44323970	    109.26923812	     57.10082493	      0.00000000	      0.00000000
      2.71000000	    -14.04279612	      4.16438492	      5.28447546	      0.95903233	      0.97661903	     -0.36245840	     39.83354992	     -8.05882875	      3.26150309	    109.36908209	    109.36908209	     -3.82812653	      0.00000000	      0.00000000	     26.13870040	     11.72580000	      0.69523246	     45.71166327	     45.71166327	     15.33191352	      0.00000000	      0.00000000	     -0.80394431	     -6.22091854	     -7.66440164	    -28.40470728	    -21.91256675	     -0.03160180	     81.65653493	     63.71104502	      0.00000000	      0.00000000	    -24.77134481	    -17.41738334	     -6.42707686	    109.53149872	     57.08341638	      0.00000000	      0.00000000
      2.72000000	    -15.13000054	      3.36759670	      4.33993385	      0.95941837	      0.98062906	     -0.36431366	     44.02002256	     -6.94137252	      3.91686384	    107.29350032	    107.29350032	     -2.71459076	      0.00000000	      0.00000000	     22.79949551	     10.72812762	      0.70858571	     41.49868320	     41.49868320	     15.07436032	      0.00000000	      0.00000000	      0.87969433	     -4.88963481	     -7.97430081	    -30.65452015	    -23.28654270	     -1.04225046	     84.01248635	     63.75453531	      0.00000000	      0.00000000	    -24.75983043	    -15.58843202	     -7.04733616	    113.48093189	     57.14534239	      0.00000000	      0.00000000
      2.73000000	    -15.81087298	      3.06382279	      3.25805692	      0.95999956	      0.98541976	     -0.36384900	     47.51798798	     -5.94079016	      4.55815362	    104.82348818	    104.82348818	     -1.92040260	      0.00000000	      0.00000000	     19.72532970	     10.06906912	      0.85091688	     38.85943763	     38.85943763	     13.98925432	      0.00000000	      0.00000000	      1.91056611	     -4.32234640	     -8.45729967	    -32.60022369	    -23.67388613	     -1.80425454	     86.31082416	     63.77188652	      0.00000000	      0.00000000	    -25.36868976	    -15.00513823	     -7.92739673	    116.19766612	     57.14906663	      0.00000000	      0.00000000
      2.74000000	    -16.42820723	      2.72582580	      1.98224015	      0.96110861	      0.99073479	     -0.36359165	     50.73373992	     -4.89512067	      4.91610750	    102.17335129	    102.17335129	     -1.09602155	      0.00000000	      0.00000000	     16.30108835	      9.32331660	      0.67273909	     35.26229920	     35.26229920	     11.15896617	      0.00000000	      0.00000000	      3.00656815	     -3.37610204	     -8.74163508	    -34.67591495	    -24.18045624	     -2.97377655	     89.29061360	     63.72478707	      0.00000000	      0.00000000	    -26.11496999	    -14.01070878	     -8.97427439	    119.25117926	     57.09519327	      0.00000000	      0.00000000
